<svg id="visual" viewBox="0 0 900 200" width="900" height="200" xmlns="http://www.w3.org/2000/svg" xmlns:xlink="http://www.w3.org/1999/xlink" version="1.1"><path d="M0 163L21.5 160.5C43 158 86 153 128.8 147.2C171.7 141.3 214.3 134.7 257.2 138.7C300 142.7 343 157.3 385.8 160.2C428.7 163 471.3 154 514.2 152.8C557 151.7 600 158.3 642.8 160.7C685.7 163 728.3 161 771.2 155.5C814 150 857 141 878.5 136.5L900 132L900 201L878.5 201C857 201 814 201 771.2 201C728.3 201 685.7 201 642.8 201C600 201 557 201 514.2 201C471.3 201 428.7 201 385.8 201C343 201 300 201 257.2 201C214.3 201 171.7 201 128.8 201C86 201 43 201 21.5 201L0 201Z" fill="#FABD2F" stroke-linecap="round" stroke-linejoin="miter"></path></svg>
